<?xml version="1.0" encoding="UTF-8"?>
<svg width="137px" height="7px" viewBox="0 0 137 7" version="1.1" xmlns="http://www.w3.org/2000/svg" xmlns:xlink="http://www.w3.org/1999/xlink">
    <!-- Generator: sketchtool 50.2 (55047) - http://www.bohemiancoding.com/sketch -->
    <title>33AB1EB5-0C5B-4512-B56D-3BCA936C0DD9</title>
    <desc>Created with sketchtool.</desc>
    <defs></defs>
    <g id="Home-Page" stroke="none" stroke-width="1" fill="none" fill-rule="evenodd">
        <g id="SokoGlam_HP_Rev3" transform="translate(-285.000000, -1042.000000)" stroke="#EC138D" stroke-width="2">
            <g id="Squiggle" transform="translate(285.000000, 1043.000000)">
                <path d="M0,0.0659433441 C4.03711747,0.0659433441 4.03711747,4.02254399 8.07423494,4.02254399 C12.1112865,4.02254399 12.1112865,0.0659433441 16.1482721,0.0659433441 C20.1854555,0.0659433441 20.1854555,4.02254399 24.2226389,4.02254399 C28.2597563,4.02254399 28.2597563,0.0659433441 32.2968738,0.0659433441 C36.3340572,0.0659433441 36.3340572,4.02254399 40.3712406,4.02254399 C44.40849,4.02254399 44.40849,0.0659433441 48.4456734,0.0659433441 C52.4828568,0.0659433441 52.4828568,4.02254399 56.5201062,4.02254399 C60.5574215,4.02254399 60.5574215,0.0659433441 64.5948027,0.0659433441 C68.632184,0.0659433441 68.632184,4.02254399 72.6695652,4.02254399" id="Page-1"></path>
                <path d="M64.3304348,0.0659433441 C68.3675523,0.0659433441 68.3675523,4.02254399 72.4046697,4.02254399 C76.4417212,4.02254399 76.4417212,0.0659433441 80.4787068,0.0659433441 C84.5158902,0.0659433441 84.5158902,4.02254399 88.5530737,4.02254399 C92.5901911,4.02254399 92.5901911,0.0659433441 96.6273086,0.0659433441 C100.664492,0.0659433441 100.664492,4.02254399 104.701675,4.02254399 C108.738925,4.02254399 108.738925,0.0659433441 112.776108,0.0659433441 C116.813292,0.0659433441 116.813292,4.02254399 120.850541,4.02254399 C124.887856,4.02254399 124.887856,0.0659433441 128.925238,0.0659433441 C132.962619,0.0659433441 132.962619,4.02254399 137,4.02254399" id="Page-1-Copy"></path>
            </g>
        </g>
    </g>
</svg>